<mxfile host="65bd71144e">
    <diagram id="2HT7Yay-ACg-Y0ypsjG0" name="Page-1">
        <mxGraphModel dx="2280" dy="875" grid="1" gridSize="10" guides="1" tooltips="1" connect="1" arrows="1" fold="1" page="1" pageScale="1" pageWidth="850" pageHeight="1100" math="0" shadow="0">
            <root>
                <mxCell id="0"/>
                <mxCell id="1" parent="0"/>
                <mxCell id="2" value="Ziele werden geholt" style="rounded=0;whiteSpace=wrap;html=1;" parent="1" vertex="1">
                    <mxGeometry x="260" y="110" width="120" height="60" as="geometry"/>
                </mxCell>
                <mxCell id="3" value="Ziele aus dem Storage und aktuelle eingehende Ziele werden miteinander verglichen" style="rounded=0;whiteSpace=wrap;html=1;" parent="1" vertex="1">
                    <mxGeometry x="235" y="210" width="170" height="60" as="geometry"/>
                </mxCell>
                <mxCell id="5" value="Gibt es Unterschiede?" style="rhombus;whiteSpace=wrap;html=1;" parent="1" vertex="1">
                    <mxGeometry x="215" y="300" width="210" height="80" as="geometry"/>
                </mxCell>
                <mxCell id="8" value="" style="endArrow=classic;html=1;exitX=0;exitY=0.5;exitDx=0;exitDy=0;entryX=0.5;entryY=0;entryDx=0;entryDy=0;" parent="1" source="5" target="10" edge="1">
                    <mxGeometry width="50" height="50" relative="1" as="geometry">
                        <mxPoint x="170" y="520" as="sourcePoint"/>
                        <mxPoint x="130" y="430" as="targetPoint"/>
                        <Array as="points">
                            <mxPoint x="130" y="340"/>
                        </Array>
                    </mxGeometry>
                </mxCell>
                <mxCell id="9" value="Ja" style="edgeLabel;html=1;align=center;verticalAlign=middle;resizable=0;points=[];" parent="8" vertex="1" connectable="0">
                    <mxGeometry x="-0.2543" y="2" relative="1" as="geometry">
                        <mxPoint as="offset"/>
                    </mxGeometry>
                </mxCell>
                <mxCell id="10" value="Welche Daten sind neu beziehungsweise wurden entfernt?" style="rounded=1;whiteSpace=wrap;html=1;" parent="1" vertex="1">
                    <mxGeometry x="70" y="390" width="120" height="60" as="geometry"/>
                </mxCell>
                <mxCell id="11" value="- Daten welche gleich sind bleiben unverändert.&amp;nbsp;&lt;br&gt;&lt;br&gt;-&amp;nbsp;Prüfen, welche Destinationen im Storage vorhanden sind, welche nicht mehr mit den aktuellen eingehenden Destinationen übereinstimmen und diese löschen.&lt;br&gt;&lt;br&gt;- Ziele die völlig neu sind werden hinzugefügt" style="rounded=1;whiteSpace=wrap;html=1;" parent="1" vertex="1">
                    <mxGeometry x="-110" y="480" width="480" height="90" as="geometry"/>
                </mxCell>
                <mxCell id="13" value="" style="endArrow=classic;html=1;exitX=0.5;exitY=1;exitDx=0;exitDy=0;entryX=0.5;entryY=0;entryDx=0;entryDy=0;" parent="1" source="10" target="11" edge="1">
                    <mxGeometry width="50" height="50" relative="1" as="geometry">
                        <mxPoint x="300" y="490" as="sourcePoint"/>
                        <mxPoint x="350" y="440" as="targetPoint"/>
                    </mxGeometry>
                </mxCell>
                <mxCell id="14" value="" style="endArrow=classic;html=1;exitX=0.5;exitY=1;exitDx=0;exitDy=0;entryX=0.5;entryY=0;entryDx=0;entryDy=0;" parent="1" source="11" target="16" edge="1">
                    <mxGeometry width="50" height="50" relative="1" as="geometry">
                        <mxPoint x="230" y="710" as="sourcePoint"/>
                        <mxPoint x="130" y="640" as="targetPoint"/>
                    </mxGeometry>
                </mxCell>
                <mxCell id="16" value="API Calls durchführen mit Zielen welche völlig neu sind" style="rounded=1;whiteSpace=wrap;html=1;" parent="1" vertex="1">
                    <mxGeometry x="40" y="600" width="180" height="60" as="geometry"/>
                </mxCell>
                <mxCell id="17" value="Die neuen Daten in die Übersicht hinzufügen und dem displayvideo funktion übergeben" style="rounded=1;whiteSpace=wrap;html=1;" parent="1" vertex="1">
                    <mxGeometry x="50" y="690" width="160" height="90" as="geometry"/>
                </mxCell>
                <mxCell id="18" value="Ziele als einzelne Begrifflichkeiten bzw. Wörter mit dessen Videovorschläge von der API als Text und nicht als HTML." style="rounded=1;whiteSpace=wrap;html=1;" parent="1" vertex="1">
                    <mxGeometry x="370" y="710" width="380" height="70" as="geometry"/>
                </mxCell>
                <mxCell id="19" value="DisplayVideo funktion zeigt alles an" style="rounded=1;whiteSpace=wrap;html=1;" parent="1" vertex="1">
                    <mxGeometry x="70" y="810" width="120" height="60" as="geometry"/>
                </mxCell>
                <mxCell id="20" value="" style="endArrow=classic;html=1;exitX=0.5;exitY=1;exitDx=0;exitDy=0;entryX=0.5;entryY=0;entryDx=0;entryDy=0;" parent="1" source="16" target="17" edge="1">
                    <mxGeometry width="50" height="50" relative="1" as="geometry">
                        <mxPoint x="280" y="890" as="sourcePoint"/>
                        <mxPoint x="330" y="840" as="targetPoint"/>
                    </mxGeometry>
                </mxCell>
                <mxCell id="21" value="" style="endArrow=classic;html=1;exitX=0.5;exitY=1;exitDx=0;exitDy=0;entryX=0.5;entryY=0;entryDx=0;entryDy=0;" parent="1" source="17" target="19" edge="1">
                    <mxGeometry width="50" height="50" relative="1" as="geometry">
                        <mxPoint x="250" y="870" as="sourcePoint"/>
                        <mxPoint x="300" y="820" as="targetPoint"/>
                    </mxGeometry>
                </mxCell>
                <mxCell id="22" value="" style="endArrow=classic;html=1;exitX=1;exitY=0.5;exitDx=0;exitDy=0;entryX=0.5;entryY=0;entryDx=0;entryDy=0;" parent="1" source="5" target="24" edge="1">
                    <mxGeometry width="50" height="50" relative="1" as="geometry">
                        <mxPoint x="610" y="350" as="sourcePoint"/>
                        <mxPoint x="500" y="380" as="targetPoint"/>
                        <Array as="points">
                            <mxPoint x="550" y="340"/>
                        </Array>
                    </mxGeometry>
                </mxCell>
                <mxCell id="23" value="Nein" style="edgeLabel;html=1;align=center;verticalAlign=middle;resizable=0;points=[];" parent="22" vertex="1" connectable="0">
                    <mxGeometry x="-0.2135" y="-1" relative="1" as="geometry">
                        <mxPoint as="offset"/>
                    </mxGeometry>
                </mxCell>
                <mxCell id="24" value="Alle Ziele welche im Storage vorhanden sind werden ohne jegliches wenn oder aber der DisplayVideo Funktion übergeben" style="rounded=1;whiteSpace=wrap;html=1;" parent="1" vertex="1">
                    <mxGeometry x="430" y="380" width="240" height="60" as="geometry"/>
                </mxCell>
                <mxCell id="25" value="DisplayVideo funktion zeigt alles an" style="rounded=1;whiteSpace=wrap;html=1;" parent="1" vertex="1">
                    <mxGeometry x="490" y="480" width="120" height="60" as="geometry"/>
                </mxCell>
                <mxCell id="26" value="" style="endArrow=classic;html=1;exitX=0.5;exitY=1;exitDx=0;exitDy=0;entryX=0.5;entryY=0;entryDx=0;entryDy=0;" parent="1" source="24" target="25" edge="1">
                    <mxGeometry width="50" height="50" relative="1" as="geometry">
                        <mxPoint x="530" y="650" as="sourcePoint"/>
                        <mxPoint x="580" y="600" as="targetPoint"/>
                    </mxGeometry>
                </mxCell>
                <mxCell id="27" value="&lt;h1&gt;Welche Daten werden in den Chrome Storage gespeichert?&lt;/h1&gt;" style="text;html=1;strokeColor=none;fillColor=none;align=center;verticalAlign=middle;whiteSpace=wrap;rounded=0;" parent="1" vertex="1">
                    <mxGeometry x="380" y="650" width="360" height="30" as="geometry"/>
                </mxCell>
                <mxCell id="29" value="" style="endArrow=classic;html=1;exitX=0.5;exitY=1;exitDx=0;exitDy=0;entryX=0.5;entryY=0;entryDx=0;entryDy=0;" parent="1" source="2" target="3" edge="1">
                    <mxGeometry width="50" height="50" relative="1" as="geometry">
                        <mxPoint x="310" y="300" as="sourcePoint"/>
                        <mxPoint x="360" y="250" as="targetPoint"/>
                    </mxGeometry>
                </mxCell>
                <mxCell id="30" value="" style="endArrow=classic;html=1;exitX=0.5;exitY=1;exitDx=0;exitDy=0;entryX=0.5;entryY=0;entryDx=0;entryDy=0;" parent="1" source="3" target="5" edge="1">
                    <mxGeometry width="50" height="50" relative="1" as="geometry">
                        <mxPoint x="470" y="300" as="sourcePoint"/>
                        <mxPoint x="520" y="250" as="targetPoint"/>
                    </mxGeometry>
                </mxCell>
                <mxCell id="31" value="" style="rounded=1;whiteSpace=wrap;html=1;arcSize=7;" vertex="1" parent="1">
                    <mxGeometry x="855" y="370" width="425" height="510" as="geometry"/>
                </mxCell>
                <mxCell id="32" value="&lt;h1&gt;Wie die Daten im Storage gespeichert werden&lt;/h1&gt;" style="text;html=1;strokeColor=none;fillColor=none;align=center;verticalAlign=middle;whiteSpace=wrap;rounded=0;" vertex="1" parent="1">
                    <mxGeometry x="912.5" y="310" width="310" height="30" as="geometry"/>
                </mxCell>
                <mxCell id="33" value="&lt;div&gt;{&lt;/div&gt;&lt;ul&gt;&lt;li&gt;title&lt;/li&gt;&lt;li&gt;&lt;span style=&quot;background-color: initial;&quot;&gt;url&lt;/span&gt;&lt;br&gt;&lt;/li&gt;&lt;li&gt;&lt;span style=&quot;background-color: initial;&quot;&gt;description&lt;/span&gt;&lt;/li&gt;&lt;li&gt;&lt;span style=&quot;background-color: initial;&quot;&gt;thumbnail&lt;/span&gt;&lt;/li&gt;&lt;/ul&gt;&lt;div&gt;}&lt;/div&gt;" style="text;strokeColor=none;fillColor=none;html=1;whiteSpace=wrap;verticalAlign=middle;overflow=hidden;" vertex="1" parent="1">
                    <mxGeometry x="870" y="405" width="170" height="140" as="geometry"/>
                </mxCell>
                <mxCell id="34" value="Ziel 1" style="text;html=1;strokeColor=none;fillColor=none;align=center;verticalAlign=middle;whiteSpace=wrap;rounded=0;" vertex="1" parent="1">
                    <mxGeometry x="855" y="380" width="60" height="30" as="geometry"/>
                </mxCell>
                <mxCell id="35" value="&lt;div&gt;{&lt;/div&gt;&lt;ul&gt;&lt;li&gt;title&lt;/li&gt;&lt;li&gt;&lt;span style=&quot;background-color: initial;&quot;&gt;url&lt;/span&gt;&lt;br&gt;&lt;/li&gt;&lt;li&gt;&lt;span style=&quot;background-color: initial;&quot;&gt;description&lt;/span&gt;&lt;/li&gt;&lt;li&gt;&lt;span style=&quot;background-color: initial;&quot;&gt;thumbnail&lt;/span&gt;&lt;/li&gt;&lt;/ul&gt;&lt;div&gt;}&lt;/div&gt;" style="text;strokeColor=none;fillColor=none;html=1;whiteSpace=wrap;verticalAlign=middle;overflow=hidden;" vertex="1" parent="1">
                    <mxGeometry x="870" y="550" width="170" height="140" as="geometry"/>
                </mxCell>
                <mxCell id="36" value="Ziel 2" style="text;html=1;strokeColor=none;fillColor=none;align=center;verticalAlign=middle;whiteSpace=wrap;rounded=0;" vertex="1" parent="1">
                    <mxGeometry x="855" y="700" width="60" height="30" as="geometry"/>
                </mxCell>
                <mxCell id="37" value="&lt;div&gt;{&lt;/div&gt;&lt;ul&gt;&lt;li&gt;title&lt;/li&gt;&lt;li&gt;&lt;span style=&quot;background-color: initial;&quot;&gt;url&lt;/span&gt;&lt;br&gt;&lt;/li&gt;&lt;li&gt;&lt;span style=&quot;background-color: initial;&quot;&gt;description&lt;/span&gt;&lt;/li&gt;&lt;li&gt;&lt;span style=&quot;background-color: initial;&quot;&gt;thumbnail&lt;/span&gt;&lt;/li&gt;&lt;/ul&gt;&lt;div&gt;}&lt;/div&gt;" style="text;strokeColor=none;fillColor=none;html=1;whiteSpace=wrap;verticalAlign=middle;overflow=hidden;" vertex="1" parent="1">
                    <mxGeometry x="870" y="730" width="170" height="140" as="geometry"/>
                </mxCell>
                <mxCell id="38" value="Darunter alle dazugehörigen Video" style="text;html=1;strokeColor=none;fillColor=none;align=center;verticalAlign=middle;whiteSpace=wrap;rounded=0;" vertex="1" parent="1">
                    <mxGeometry x="950" y="380" width="190" height="30" as="geometry"/>
                </mxCell>
                <mxCell id="39" value="&lt;h1&gt;Wie die Überprüfung gewehrleistet wird&lt;/h1&gt;" style="text;html=1;strokeColor=none;fillColor=none;align=center;verticalAlign=middle;whiteSpace=wrap;rounded=0;" vertex="1" parent="1">
                    <mxGeometry x="1410" y="325" width="310" height="30" as="geometry"/>
                </mxCell>
                <mxCell id="40" value="Ziele festgelegt in der Inputwebseite VS. Ziele die im Storage vorhanden sind" style="rounded=1;whiteSpace=wrap;html=1;" vertex="1" parent="1">
                    <mxGeometry x="1385" y="390" width="360" height="120" as="geometry"/>
                </mxCell>
                <mxCell id="41" value="Unterschiede erkennen" style="rounded=1;whiteSpace=wrap;html=1;" vertex="1" parent="1">
                    <mxGeometry x="1390" y="555" width="350" height="45" as="geometry"/>
                </mxCell>
                <mxCell id="42" value="" style="endArrow=classic;html=1;exitX=0.5;exitY=1;exitDx=0;exitDy=0;entryX=0.5;entryY=0;entryDx=0;entryDy=0;" edge="1" parent="1" source="40" target="41">
                    <mxGeometry width="50" height="50" relative="1" as="geometry">
                        <mxPoint x="1570" y="800" as="sourcePoint"/>
                        <mxPoint x="1620" y="750" as="targetPoint"/>
                    </mxGeometry>
                </mxCell>
                <mxCell id="43" value="Wenn ein Ziel im Storage vorhanden ist welches nicht in der Inputwebseite vorkommt entfernen" style="rounded=1;whiteSpace=wrap;html=1;" vertex="1" parent="1">
                    <mxGeometry x="1360" y="640" width="410" height="80" as="geometry"/>
                </mxCell>
                <mxCell id="44" value="" style="endArrow=classic;html=1;exitX=0.5;exitY=1;exitDx=0;exitDy=0;entryX=0.5;entryY=0;entryDx=0;entryDy=0;" edge="1" parent="1" source="41" target="43">
                    <mxGeometry width="50" height="50" relative="1" as="geometry">
                        <mxPoint x="1690" y="630" as="sourcePoint"/>
                        <mxPoint x="1740" y="580" as="targetPoint"/>
                    </mxGeometry>
                </mxCell>
                <mxCell id="45" value="Wenn ein Ziel in der Inputwebseite vorhanden ist, welche aber im Storage nicht vorkommt, hinzufügen" style="rounded=1;whiteSpace=wrap;html=1;" vertex="1" parent="1">
                    <mxGeometry x="1360" y="750" width="410" height="80" as="geometry"/>
                </mxCell>
                <mxCell id="46" value="" style="endArrow=classic;html=1;exitX=0.5;exitY=1;exitDx=0;exitDy=0;entryX=0.5;entryY=0;entryDx=0;entryDy=0;" edge="1" parent="1" source="43" target="45">
                    <mxGeometry width="50" height="50" relative="1" as="geometry">
                        <mxPoint x="1720" y="610" as="sourcePoint"/>
                        <mxPoint x="1770" y="560" as="targetPoint"/>
                    </mxGeometry>
                </mxCell>
                <mxCell id="48" value="Entsprechend API Call machen pro neuem Ziel" style="rounded=1;whiteSpace=wrap;html=1;" vertex="1" parent="1">
                    <mxGeometry x="1810" y="750" width="410" height="80" as="geometry"/>
                </mxCell>
                <mxCell id="49" value="" style="endArrow=none;html=1;exitX=1;exitY=0.5;exitDx=0;exitDy=0;entryX=0;entryY=0.5;entryDx=0;entryDy=0;" edge="1" parent="1" source="45" target="48">
                    <mxGeometry width="50" height="50" relative="1" as="geometry">
                        <mxPoint x="1830" y="960" as="sourcePoint"/>
                        <mxPoint x="1880" y="910" as="targetPoint"/>
                    </mxGeometry>
                </mxCell>
                <mxCell id="50" value="Ziele mit dessen Videos in den Storage speichern" style="rounded=1;whiteSpace=wrap;html=1;" vertex="1" parent="1">
                    <mxGeometry x="1360" y="870" width="410" height="80" as="geometry"/>
                </mxCell>
                <mxCell id="51" value="Ausgabe erfolgt durch das Abrufen des Inhalts des Storages, da die Inhalte sowieso im Storage am Ende noch gespeichert werden müssen" style="rounded=1;whiteSpace=wrap;html=1;" vertex="1" parent="1">
                    <mxGeometry x="1360" y="1000" width="410" height="80" as="geometry"/>
                </mxCell>
                <mxCell id="52" value="" style="endArrow=classic;html=1;exitX=0.5;exitY=1;exitDx=0;exitDy=0;entryX=0.5;entryY=0;entryDx=0;entryDy=0;" edge="1" parent="1" source="45" target="50">
                    <mxGeometry width="50" height="50" relative="1" as="geometry">
                        <mxPoint x="1890" y="940" as="sourcePoint"/>
                        <mxPoint x="1940" y="890" as="targetPoint"/>
                    </mxGeometry>
                </mxCell>
                <mxCell id="53" value="" style="endArrow=classic;html=1;exitX=0.5;exitY=1;exitDx=0;exitDy=0;entryX=0.5;entryY=0;entryDx=0;entryDy=0;" edge="1" parent="1" source="50" target="51">
                    <mxGeometry width="50" height="50" relative="1" as="geometry">
                        <mxPoint x="1890" y="970" as="sourcePoint"/>
                        <mxPoint x="1940" y="920" as="targetPoint"/>
                    </mxGeometry>
                </mxCell>
                <mxCell id="54" value="Die Ausgabe wird immer im DisplayVideo gemacht und nirgens wo anders. Die searchVideo Funktion holt die Daten nur, schaut nach unterschiede, führt die nötigen API calls durch, aktualisiert den Storage anhand von Änderungen und gibt die Daten dann weiter dem Display Video. Änderungen werden direkt am Anfang überprüft. Sind keine Änderungen vorhanden wird direkt die DisplayVideo Funktion aufgerufen welchen den Inhalt des Storages ausgibt." style="rounded=1;whiteSpace=wrap;html=1;" vertex="1" parent="1">
                    <mxGeometry x="1790" y="880" width="440" height="160" as="geometry"/>
                </mxCell>
            </root>
        </mxGraphModel>
    </diagram>
</mxfile>